<svg xmlns="http://www.w3.org/2000/svg" viewBox="0 0 920 870" font-family="'Segoe UI', Roboto, 'Helvetica Neue', Arial, sans-serif">
  <defs>
    <linearGradient id="bg" x1="0%" y1="0%" x2="100%" y2="100%">
      <stop offset="0%" stop-color="#1a1a2e"/>
      <stop offset="100%" stop-color="#16213e"/>
    </linearGradient>
    <linearGradient id="userG" x1="0%" y1="0%" x2="0%" y2="100%">
      <stop offset="0%" stop-color="#48c9b0"/>
      <stop offset="100%" stop-color="#1abc9c"/>
    </linearGradient>
    <linearGradient id="supervisorG" x1="0%" y1="0%" x2="0%" y2="100%">
      <stop offset="0%" stop-color="#2980b9"/>
      <stop offset="100%" stop-color="#1a5276"/>
    </linearGradient>
    <linearGradient id="claudeG" x1="0%" y1="0%" x2="0%" y2="100%">
      <stop offset="0%" stop-color="#533483"/>
      <stop offset="100%" stop-color="#6c3d9e"/>
    </linearGradient>
    <linearGradient id="codexG" x1="0%" y1="0%" x2="0%" y2="100%">
      <stop offset="0%" stop-color="#e97c00"/>
      <stop offset="100%" stop-color="#f5a623"/>
    </linearGradient>
    <linearGradient id="piG" x1="0%" y1="0%" x2="0%" y2="100%">
      <stop offset="0%" stop-color="#1e8449"/>
      <stop offset="100%" stop-color="#27ae60"/>
    </linearGradient>
    <linearGradient id="hermesG" x1="0%" y1="0%" x2="0%" y2="100%">
      <stop offset="0%" stop-color="#922b21"/>
      <stop offset="100%" stop-color="#cb4335"/>
    </linearGradient>
    <linearGradient id="policyG" x1="0%" y1="0%" x2="100%" y2="0%">
      <stop offset="0%" stop-color="#e74c3c"/>
      <stop offset="100%" stop-color="#c0392b"/>
    </linearGradient>
    <linearGradient id="sessionG" x1="0%" y1="0%" x2="100%" y2="0%">
      <stop offset="0%" stop-color="#1abc9c"/>
      <stop offset="100%" stop-color="#48c9b0"/>
    </linearGradient>
    <linearGradient id="reportG" x1="0%" y1="0%" x2="0%" y2="100%">
      <stop offset="0%" stop-color="#0f3460"/>
      <stop offset="100%" stop-color="#1a5276"/>
    </linearGradient>
    <filter id="shadow" x="-5%" y="-5%" width="110%" height="115%">
      <feDropShadow dx="0" dy="3" stdDeviation="6" flood-color="#000" flood-opacity="0.35"/>
    </filter>
    <marker id="arrowClaude" markerWidth="10" markerHeight="8" refX="9" refY="4" orient="auto">
      <path d="M0,0 L10,4 L0,8 Z" fill="#6c3d9e" opacity="0.7"/>
    </marker>
    <marker id="arrowCodex" markerWidth="10" markerHeight="8" refX="9" refY="4" orient="auto">
      <path d="M0,0 L10,4 L0,8 Z" fill="#f5a623" opacity="0.7"/>
    </marker>
    <marker id="arrowPi" markerWidth="10" markerHeight="8" refX="9" refY="4" orient="auto">
      <path d="M0,0 L10,4 L0,8 Z" fill="#27ae60" opacity="0.7"/>
    </marker>
    <marker id="arrowHermes" markerWidth="10" markerHeight="8" refX="9" refY="4" orient="auto">
      <path d="M0,0 L10,4 L0,8 Z" fill="#cb4335" opacity="0.7"/>
    </marker>
    <marker id="arrowClaudeR" markerWidth="10" markerHeight="8" refX="9" refY="4" orient="auto">
      <path d="M0,0 L10,4 L0,8 Z" fill="#6c3d9e" opacity="0.5"/>
    </marker>
    <marker id="arrowCodexR" markerWidth="10" markerHeight="8" refX="9" refY="4" orient="auto">
      <path d="M0,0 L10,4 L0,8 Z" fill="#f5a623" opacity="0.5"/>
    </marker>
    <marker id="arrowPiR" markerWidth="10" markerHeight="8" refX="9" refY="4" orient="auto">
      <path d="M0,0 L10,4 L0,8 Z" fill="#27ae60" opacity="0.5"/>
    </marker>
    <marker id="arrowHermesR" markerWidth="10" markerHeight="8" refX="9" refY="4" orient="auto">
      <path d="M0,0 L10,4 L0,8 Z" fill="#cb4335" opacity="0.5"/>
    </marker>
    <marker id="arrowG" markerWidth="10" markerHeight="8" refX="9" refY="4" orient="auto">
      <path d="M0,0 L10,4 L0,8 Z" fill="#48c9b0" opacity="0.7"/>
    </marker>
    <linearGradient id="mlflowG" x1="0%" y1="0%" x2="0%" y2="100%">
      <stop offset="0%" stop-color="#0194e2"/>
      <stop offset="100%" stop-color="#016bb8"/>
    </linearGradient>
  </defs>

  <!-- Background -->
  <rect width="920" height="870" fill="url(#bg)"/>

  <!-- Subtle grid -->
  <g opacity="0.03" stroke="#fff" stroke-width="0.5">
    <line x1="0" y1="100" x2="920" y2="100"/><line x1="0" y1="200" x2="920" y2="200"/>
    <line x1="0" y1="300" x2="920" y2="300"/><line x1="0" y1="400" x2="920" y2="400"/>
    <line x1="0" y1="500" x2="920" y2="500"/><line x1="0" y1="600" x2="920" y2="600"/>
    <line x1="0" y1="700" x2="920" y2="700"/>
    <line x1="150" y1="0" x2="150" y2="820"/><line x1="300" y1="0" x2="300" y2="820"/>
    <line x1="460" y1="0" x2="460" y2="820"/><line x1="610" y1="0" x2="610" y2="820"/>
    <line x1="770" y1="0" x2="770" y2="820"/>
  </g>

  <!-- Decorative circles -->
  <circle cx="80" cy="120" r="40" fill="#6c3d9e" opacity="0.04"/>
  <circle cx="840" cy="550" r="55" fill="#f5a623" opacity="0.04"/>
  <circle cx="770" cy="100" r="35" fill="#48c9b0" opacity="0.04"/>
  <circle cx="140" cy="600" r="45" fill="#27ae60" opacity="0.04"/>

  <!-- Title -->
  <text x="460" y="38" text-anchor="middle" fill="#fff" font-size="18" font-weight="700" letter-spacing="1">Harness Portability — Multi-Agent Code Project Health Inspector</text>
  <text x="460" y="58" text-anchor="middle" fill="#8899aa" font-size="11">Supervisor Dispatches  |  Four Harnesses  |  One Shared Session  |  Cost-Guarded  |  MLflow Traced</text>

  <!-- ============ GitHub Repo URL Input ============ -->
  <rect x="340" y="75" width="240" height="44" rx="22" fill="url(#userG)" filter="url(#shadow)"/>
  <text x="390" y="102" fill="#fff" font-size="14" font-weight="600">GitHub Repo URL</text>
  <text x="540" y="100" fill="#fff" font-size="16">&#x1F517;</text>

  <!-- Arrow: User -> Supervisor -->
  <line x1="460" y1="119" x2="460" y2="148" stroke="#48c9b0" stroke-width="2" opacity="0.8"/>
  <polygon points="455,146 465,146 460,156" fill="#48c9b0" opacity="0.8"/>

  <!-- ============ Supervisor ============ -->
  <rect x="200" y="156" width="520" height="70" rx="12" fill="url(#supervisorG)" filter="url(#shadow)"/>
  <text x="460" y="183" text-anchor="middle" fill="#fff" font-size="16" font-weight="700">Supervisor — Code Project Health Inspector</text>
  <text x="460" y="200" text-anchor="middle" fill="#a8d8ea" font-size="10">claude-sdk  |  claude-sonnet-4-6  |  Clones repo, dispatches inspectors, assembles report</text>
  <text x="460" y="216" text-anchor="middle" fill="#7ec8e3" font-size="8" font-style="italic">Detects or asks for GitHub URL, delegates all inspection work to sub-agents</text>

  <!-- ============ Session Banner ============ -->
  <rect x="80" y="244" width="760" height="32" rx="8" fill="url(#sessionG)" filter="url(#shadow)" opacity="0.2"/>
  <rect x="80" y="244" width="760" height="32" rx="8" fill="none" stroke="#48c9b0" stroke-width="1.2" opacity="0.6"/>
  <text x="460" y="265" text-anchor="middle" fill="#48c9b0" font-size="11" font-weight="700">&#x1F517; One Shared Session — All Agents Share Context, Files, and Cloned Repo</text>

  <!-- ============ PolicyEngine Bar ============ -->
  <rect x="80" y="294" width="760" height="32" rx="8" fill="url(#policyG)" filter="url(#shadow)" opacity="0.3"/>
  <rect x="80" y="294" width="760" height="32" rx="8" fill="none" stroke="#e74c3c" stroke-width="1.2" opacity="0.6"/>
  <text x="460" y="315" text-anchor="middle" fill="#e74c3c" font-size="11" font-weight="700">PolicyEngine — cost_guard ($5.00) + tool_call_limit (250/sub-agent) — Evaluates in the Runner</text>

  <!-- ============ Dispatch Labels ============ -->
  <text x="140" y="352" text-anchor="middle" fill="#6c3d9e" font-size="9" font-weight="600">&#x2460; Structure</text>
  <text x="345" y="352" text-anchor="middle" fill="#f5a623" font-size="9" font-weight="600">&#x2461; Tests</text>
  <text x="575" y="352" text-anchor="middle" fill="#27ae60" font-size="9" font-weight="600">&#x2462; Dependencies</text>
  <text x="780" y="352" text-anchor="middle" fill="#cb4335" font-size="9" font-weight="600">&#x2463; Security</text>

  <!-- Arrows: Supervisor -> Sub-agents (dispatch) -->
  <line x1="300" y1="226" x2="140" y2="366" stroke="#6c3d9e" stroke-width="2" opacity="0.6" marker-end="url(#arrowClaude)"/>
  <line x1="380" y1="226" x2="345" y2="366" stroke="#f5a623" stroke-width="2" opacity="0.6" marker-end="url(#arrowCodex)"/>
  <line x1="540" y1="226" x2="575" y2="366" stroke="#27ae60" stroke-width="2" opacity="0.6" marker-end="url(#arrowPi)"/>
  <line x1="620" y1="226" x2="780" y2="366" stroke="#cb4335" stroke-width="2" opacity="0.6" marker-end="url(#arrowHermes)"/>

  <!-- ============ Four Sub-Agent Boxes ============ -->

  <!-- structure_inspector (Claude SDK - purple) -->
  <rect x="35" y="370" width="210" height="130" rx="12" fill="url(#claudeG)" filter="url(#shadow)"/>
  <text x="140" y="396" text-anchor="middle" fill="#fff" font-size="13" font-weight="700">structure_inspector</text>
  <text x="140" y="414" text-anchor="middle" fill="#d7bde2" font-size="9">Claude SDK  |  claude-sonnet-4-6</text>
  <line x1="50" y1="422" x2="230" y2="422" stroke="#fff" stroke-width="0.5" opacity="0.2"/>
  <text x="140" y="440" text-anchor="middle" fill="#fff" font-size="10">Structure &amp; Documentation</text>
  <text x="140" y="456" text-anchor="middle" fill="#c39bd3" font-size="8">README, LICENSE, .gitignore</text>
  <text x="140" y="470" text-anchor="middle" fill="#c39bd3" font-size="8">Directory organization</text>
  <text x="140" y="484" text-anchor="middle" fill="#af7ac5" font-size="7" font-style="italic">$5.00 / $1.00 ASK | 250 calls</text>

  <!-- MLflow badge: structure_inspector -->
  <rect x="175" y="374" width="58" height="14" rx="7" fill="url(#mlflowG)" opacity="0.9"/>
  <text x="204" y="384" text-anchor="middle" fill="#fff" font-size="7" font-weight="600">MLflow &#x2713;</text>

  <!-- test_inspector (Codex - orange) -->
  <rect x="260" y="370" width="170" height="130" rx="12" fill="url(#codexG)" filter="url(#shadow)"/>
  <text x="345" y="396" text-anchor="middle" fill="#fff" font-size="13" font-weight="700">test_inspector</text>
  <text x="345" y="414" text-anchor="middle" fill="#ffecd2" font-size="9">Codex  |  gpt-5.4</text>
  <line x1="275" y1="422" x2="415" y2="422" stroke="#fff" stroke-width="0.5" opacity="0.2"/>
  <text x="345" y="440" text-anchor="middle" fill="#fff" font-size="10">Test Coverage &amp; CI</text>
  <text x="345" y="456" text-anchor="middle" fill="#ffd5a0" font-size="8">Test files, coverage ratio</text>
  <text x="345" y="470" text-anchor="middle" fill="#ffd5a0" font-size="8">CI config, frameworks</text>
  <text x="345" y="484" text-anchor="middle" fill="#e8c07a" font-size="7" font-style="italic">$5.00 / $1.00 ASK | 250 calls</text>

  <!-- MLflow badge: test_inspector -->
  <rect x="362" y="374" width="58" height="14" rx="7" fill="url(#mlflowG)" opacity="0.9"/>
  <text x="391" y="384" text-anchor="middle" fill="#fff" font-size="7" font-weight="600">MLflow &#x2713;</text>

  <!-- dependency_inspector (Pi - green) -->
  <rect x="445" y="370" width="210" height="130" rx="12" fill="url(#piG)" filter="url(#shadow)"/>
  <text x="550" y="396" text-anchor="middle" fill="#fff" font-size="13" font-weight="700">dependency_inspector</text>
  <text x="550" y="414" text-anchor="middle" fill="#a9dfbf" font-size="9">Pi  |  claude-sonnet-4-6</text>
  <line x1="460" y1="422" x2="640" y2="422" stroke="#fff" stroke-width="0.5" opacity="0.2"/>
  <text x="550" y="440" text-anchor="middle" fill="#fff" font-size="10">Dependency Health</text>
  <text x="550" y="456" text-anchor="middle" fill="#82e0aa" font-size="8">Manifests, pinning, lock files</text>
  <text x="550" y="470" text-anchor="middle" fill="#82e0aa" font-size="8">Dev vs production deps</text>
  <text x="550" y="484" text-anchor="middle" fill="#58d68d" font-size="7" font-style="italic">$5.00 / $1.00 ASK | 250 calls</text>

  <!-- security_inspector (Hermes - red) -->
  <rect x="670" y="370" width="210" height="130" rx="12" fill="url(#hermesG)" filter="url(#shadow)"/>
  <text x="775" y="396" text-anchor="middle" fill="#fff" font-size="13" font-weight="700">security_inspector</text>
  <text x="775" y="414" text-anchor="middle" fill="#f5b7b1" font-size="9">Hermes  |  claude-sonnet-4-6</text>
  <line x1="685" y1="422" x2="865" y2="422" stroke="#fff" stroke-width="0.5" opacity="0.2"/>
  <text x="775" y="440" text-anchor="middle" fill="#fff" font-size="10">Code Quality &amp; Security</text>
  <text x="775" y="456" text-anchor="middle" fill="#f1948a" font-size="8">Hotspots, secrets, eval/exec</text>
  <text x="775" y="470" text-anchor="middle" fill="#f1948a" font-size="8">TODO count, security policy</text>
  <text x="775" y="484" text-anchor="middle" fill="#e6b0aa" font-size="7" font-style="italic">$5.00 / $1.00 ASK | 250 calls</text>

  <!-- Return arrows: Sub-agents -> Supervisor -->
  <line x1="140" y1="370" x2="310" y2="230" stroke="#6c3d9e" stroke-width="1.5" opacity="0.4" stroke-dasharray="5 3" marker-end="url(#arrowClaudeR)"/>
  <line x1="345" y1="370" x2="390" y2="230" stroke="#f5a623" stroke-width="1.5" opacity="0.4" stroke-dasharray="5 3" marker-end="url(#arrowCodexR)"/>
  <line x1="575" y1="370" x2="530" y2="230" stroke="#27ae60" stroke-width="1.5" opacity="0.4" stroke-dasharray="5 3" marker-end="url(#arrowPiR)"/>
  <line x1="780" y1="370" x2="610" y2="230" stroke="#cb4335" stroke-width="1.5" opacity="0.4" stroke-dasharray="5 3" marker-end="url(#arrowHermesR)"/>

  <!-- Return labels -->
  <text x="200" y="302" fill="#c39bd3" font-size="7" font-weight="600" opacity="0.7">findings</text>
  <text x="355" y="302" fill="#ffd5a0" font-size="7" font-weight="600" opacity="0.7">findings</text>
  <text x="540" y="302" fill="#82e0aa" font-size="7" font-weight="600" opacity="0.7">findings</text>
  <text x="690" y="302" fill="#f1948a" font-size="7" font-weight="600" opacity="0.7">findings</text>

  <!-- ============ Shared CWD Banner ============ -->
  <rect x="80" y="520" width="760" height="40" rx="8" fill="url(#reportG)" filter="url(#shadow)" opacity="0.7"/>
  <text x="460" y="540" text-anchor="middle" fill="#a8d8ea" font-size="11" font-weight="700">&#x1F4C2; Shared Working Directory — /tmp/omnigent_inspect/&lt;repo_name&gt;</text>
  <text x="460" y="554" text-anchor="middle" fill="#7ec8e3" font-size="8">All four sub-agents analyze the same cloned repository. Supervisor writes the final report.</text>

  <!-- ============ Assembly Flow ============ -->
  <text x="460" y="588" text-anchor="middle" fill="#fff" font-size="14" font-weight="700">Report Assembly Pipeline</text>

  <!-- Flow boxes -->
  <rect x="25" y="602" width="128" height="50" rx="8" fill="url(#userG)" filter="url(#shadow)" opacity="0.8"/>
  <text x="89" y="624" text-anchor="middle" fill="#fff" font-size="10" font-weight="600">User provides URL</text>
  <text x="89" y="640" text-anchor="middle" fill="#d5f5e3" font-size="7">inline or prompted</text>

  <line x1="153" y1="627" x2="168" y2="627" stroke="#fff" stroke-width="1.5" opacity="0.4"/>
  <polygon points="166,623 166,631 174,627" fill="#fff" opacity="0.4"/>

  <rect x="175" y="602" width="120" height="50" rx="8" fill="url(#supervisorG)" filter="url(#shadow)" opacity="0.8"/>
  <text x="235" y="624" text-anchor="middle" fill="#fff" font-size="10" font-weight="600">Supervisor</text>
  <text x="235" y="640" text-anchor="middle" fill="#a8d8ea" font-size="7">Clones + dispatches</text>

  <line x1="295" y1="627" x2="310" y2="627" stroke="#fff" stroke-width="1.5" opacity="0.4"/>
  <polygon points="308,623 308,631 316,627" fill="#fff" opacity="0.4"/>

  <rect x="317" y="602" width="170" height="50" rx="8" fill="url(#reportG)" filter="url(#shadow)" opacity="0.8"/>
  <text x="402" y="621" text-anchor="middle" fill="#48c9b0" font-size="10" font-weight="600">4 Sub-Agents Inspect</text>
  <text x="402" y="636" text-anchor="middle" fill="#7ec8e3" font-size="7">Claude SDK + Codex + Pi + Hermes</text>
  <text x="402" y="648" text-anchor="middle" fill="#7ec8e3" font-size="6">Each inspects one category</text>

  <line x1="487" y1="627" x2="502" y2="627" stroke="#fff" stroke-width="1.5" opacity="0.4"/>
  <polygon points="500,623 500,631 508,627" fill="#fff" opacity="0.4"/>

  <rect x="509" y="602" width="130" height="50" rx="8" fill="url(#supervisorG)" filter="url(#shadow)" opacity="0.8"/>
  <text x="574" y="624" text-anchor="middle" fill="#fff" font-size="10" font-weight="600">Assemble + Grade</text>
  <text x="574" y="640" text-anchor="middle" fill="#a8d8ea" font-size="7">A / B / C / D / F per category</text>

  <line x1="639" y1="627" x2="654" y2="627" stroke="#fff" stroke-width="1.5" opacity="0.4"/>
  <polygon points="652,623 652,631 660,627" fill="#fff" opacity="0.4"/>

  <rect x="661" y="602" width="140" height="50" rx="8" fill="url(#userG)" filter="url(#shadow)" opacity="0.8"/>
  <text x="731" y="624" text-anchor="middle" fill="#fff" font-size="10" font-weight="600">health_report.md</text>
  <text x="731" y="640" text-anchor="middle" fill="#d5f5e3" font-size="7">Structured report + grades</text>

  <!-- ============ Harness Portability Callout ============ -->
  <rect x="80" y="672" width="760" height="48" rx="8" fill="#0d3b1f" opacity="0.4" stroke="#2ecc71" stroke-width="1"/>
  <text x="460" y="692" text-anchor="middle" fill="#2ecc71" font-size="10" font-weight="700">&#x1F504; Harness Portability — Each sub-agent runs on a different harness out of the box</text>
  <text x="460" y="707" text-anchor="middle" fill="#7dcea0" font-size="8">To swap a sub-agent's harness, change one line in its config.yaml. Same session tree. Same guardrails. Same report.</text>

  <!-- ============ MLflow Tracing Bar ============ -->
  <rect x="80" y="730" width="760" height="34" rx="8" fill="url(#mlflowG)" filter="url(#shadow)" opacity="0.25"/>
  <rect x="80" y="730" width="760" height="34" rx="8" fill="none" stroke="#0194e2" stroke-width="1.2" opacity="0.6"/>
  <text x="460" y="751" text-anchor="middle" fill="#0194e2" font-size="11" font-weight="700">&#x1F4CA; MLflow Tracing — mlflow.db &#x2192; http://localhost:5000 — Traces claude-sdk + codex calls</text>

  <!-- ============ Architecture Table ============ -->
  <g transform="translate(80, 785)">
    <text x="0" y="0" fill="#8899aa" font-size="9" font-weight="600">AGENT</text>
    <text x="200" y="0" fill="#8899aa" font-size="9" font-weight="600">HARNESS</text>
    <text x="330" y="0" fill="#8899aa" font-size="9" font-weight="600">MODEL</text>
    <text x="510" y="0" fill="#8899aa" font-size="9" font-weight="600">ROLE</text>
    <text x="700" y="0" fill="#8899aa" font-size="9" font-weight="600">TRACED</text>

    <line x1="0" y1="6" x2="760" y2="6" stroke="#fff" stroke-width="0.5" opacity="0.1"/>

    <text x="0" y="18" fill="#a8d8ea" font-size="8">Supervisor</text>
    <text x="200" y="18" fill="#2980b9" font-size="8">claude-sdk</text>
    <text x="330" y="18" fill="#a8d8ea" font-size="8">claude-sonnet-4-6</text>
    <text x="510" y="18" fill="#7ec8e3" font-size="8">Clone, dispatch, assemble report</text>
    <text x="700" y="18" fill="#0194e2" font-size="8" font-weight="600">&#x2713; MLflow</text>

    <text x="0" y="30" fill="#d7bde2" font-size="8">structure_inspector</text>
    <text x="200" y="30" fill="#6c3d9e" font-size="8">claude-sdk</text>
    <text x="330" y="30" fill="#d7bde2" font-size="8">claude-sonnet-4-6</text>
    <text x="510" y="30" fill="#c39bd3" font-size="8">Structure &amp; Documentation</text>
    <text x="700" y="30" fill="#0194e2" font-size="8" font-weight="600">&#x2713; MLflow</text>

    <text x="0" y="42" fill="#ffecd2" font-size="8">test_inspector</text>
    <text x="200" y="42" fill="#f5a623" font-size="8">codex</text>
    <text x="330" y="42" fill="#ffecd2" font-size="8">gpt-5.4</text>
    <text x="510" y="42" fill="#ffd5a0" font-size="8">Test Coverage &amp; CI</text>
    <text x="700" y="42" fill="#0194e2" font-size="8" font-weight="600">&#x2713; MLflow</text>

    <text x="0" y="54" fill="#a9dfbf" font-size="8">dependency_inspector</text>
    <text x="200" y="54" fill="#27ae60" font-size="8">pi</text>
    <text x="330" y="54" fill="#a9dfbf" font-size="8">claude-sonnet-4-6</text>
    <text x="510" y="54" fill="#82e0aa" font-size="8">Dependency Health</text>
    <text x="700" y="54" fill="#556677" font-size="8">—</text>

    <text x="0" y="66" fill="#f5b7b1" font-size="8">security_inspector</text>
    <text x="200" y="66" fill="#cb4335" font-size="8">hermes</text>
    <text x="330" y="66" fill="#f5b7b1" font-size="8">claude-sonnet-4-6</text>
    <text x="510" y="66" fill="#f1948a" font-size="8">Code Quality &amp; Security</text>
    <text x="700" y="66" fill="#556677" font-size="8">—</text>
  </g>
</svg>
