<svg width="40" height="40" viewBox="100 40 320 300" fill="none" xmlns="http://www.w3.org/2000/svg">
<path d="M156.293 212.265L156.107 212.131C153.518 210.248 149.473 206.479 147.012 204.154C134.88 192.686 119.208 179.437 115.725 162.304C113.404 150.892 121.396 141.92 132.327 140.246C143.869 138.479 153.555 143.313 164.354 146.336C176.453 149.721 192.628 153.168 204.692 148.153C217.889 142.667 221.841 122.063 225.335 109.415C226.808 104.237 228.325 99.0707 229.884 93.9179C234.427 78.5028 242.436 50.3577 261.004 46.9473C270.05 45.7034 275.955 51.011 280.743 57.8515C285.865 65.1672 287.372 71.7541 290.312 79.7863C296.549 96.8239 298.553 121.259 307.899 136.541C309.594 139.323 311.805 141.75 314.412 143.69C326.469 152.564 347.725 147.009 360.491 142.066C364.227 140.61 367.924 139.053 371.576 137.399C380.454 133.358 391.472 127.481 400.747 134.197C404.099 136.624 406.469 141.736 406.73 145.823C408.4 171.971 388.39 192.131 370.433 207.833L362.095 215.045C357.72 218.811 354.414 221.468 351.038 226.304C343.194 237.544 346.83 249.191 350.847 261.019C355.25 273.978 360.691 286.91 361.505 300.758C361.991 309.333 361.274 319.441 355.861 326.509C352.721 330.61 348.103 332.839 343.029 333.329C323.227 335.049 303.732 318.567 288.609 307.592C283.192 303.661 276.774 298.683 270.734 296.359C267.291 295.002 263.558 294.563 259.897 295.088C250.554 296.39 241.899 305.128 234.44 311.081C219.444 323.052 198.709 338.892 178.316 332.554C170.591 330.154 166.507 320.608 166.091 313.218C165.562 305.055 166.797 295.989 168.155 287.91C167.988 287.78 167.548 287.565 167.349 287.499C163.163 286.083 159.712 289.439 156.662 291.591C151.917 294.937 142.775 302.057 136.69 299.455C127.493 295.525 133.788 280.064 134.987 272.905C135.25 271.343 135.772 269.653 135.548 268.095C135.363 266.806 134.829 265.595 134.005 264.591C132.782 263.073 131.083 262.03 129.533 260.769C125.193 257.239 118.907 253.14 116.416 248C115.553 246.219 115.465 243.783 116.276 241.987C119.724 235.005 131.17 234.64 137.77 233.781C143.992 232.972 149.057 233.461 151.05 226.223C151.381 225.022 152.027 223.499 152.444 222.288C153.61 218.897 154.822 215.534 156.293 212.265Z" fill="#F53B9D"/>
<path d="M156.293 212.264C156.82 210.319 159.918 206.323 161.945 205.385C167.305 202.904 170.907 206.443 173.373 210.868C176.916 217.228 177.747 224.471 181.498 230.578C182.183 231.693 184.012 232.671 185.231 233.035C188.389 233.906 191.586 233.919 194.78 234.201C199.391 234.605 205.658 235.41 209.576 237.87C210.822 238.652 211.932 240.027 212.799 241.132C213.374 244.949 213.423 246.854 211.029 250.241C209.299 252.69 207.088 254.63 205.006 256.743C203.689 257.694 203.095 258.077 202.019 259.293C193.077 266.564 194.271 267.878 197.412 278.799C198.354 282.072 198.484 285.077 199.206 288.14L199.423 290.084C199.189 291.425 198.913 293.98 198.359 295.057C195.138 300.703 189.92 299.747 184.771 297.732C182.213 296.911 175.995 292.764 173.598 291.181C171.657 289.9 170.493 288.739 168.155 287.91C167.988 287.78 167.548 287.565 167.349 287.499C163.163 286.083 159.712 289.439 156.662 291.591C151.917 294.937 142.775 302.057 136.69 299.455C127.493 295.525 133.788 280.064 134.987 272.905C135.25 271.343 135.772 269.653 135.548 268.094C135.363 266.806 134.829 265.595 134.005 264.591C132.782 263.073 131.083 262.029 129.533 260.768C125.193 257.238 118.907 253.14 116.416 248C115.553 246.218 115.465 243.782 116.276 241.987C119.724 235.005 131.17 234.639 137.77 233.781C143.992 232.972 149.057 233.461 151.05 226.223C151.381 225.022 152.027 223.499 152.444 222.288C153.61 218.897 154.822 215.534 156.293 212.264Z" fill="#4DC5A0"/>
<path d="M142.637 282.401C150.061 281.975 147.814 291.76 142.272 293.292C141.29 293.322 140.374 293.398 139.497 292.961C135.907 291.173 137.423 286.191 139.825 284.037C140.925 283.051 141.338 282.846 142.637 282.401Z" fill="#26A079"/>
<path d="M186.586 282.407C187.651 282.313 188.12 282.271 189.121 282.7C191.031 283.537 192.54 285.094 193.322 287.036C194.365 289.683 194.044 292.095 191.19 293.119C190.655 293.179 190.116 293.197 189.578 293.172C185.449 292.998 183.877 288.233 184.079 284.692C184.872 283.507 185.403 283.117 186.586 282.407Z" fill="#26A079"/>
<path d="M164.075 211.424C164.882 211.361 165.703 211.392 166.515 211.403C169.787 213.404 169.852 218.58 166.214 220.252C160.687 221.513 160.299 212.686 164.075 211.424Z" fill="#26A079"/>
<path d="M123.734 241.965C125.166 241.891 126.225 241.769 127.536 242.5C129.794 243.758 129.97 245.837 128.792 247.926C128.306 248.26 127.689 248.604 127.176 248.908C122.172 249.808 119.28 244.215 123.734 241.965Z" fill="#26A079"/>
<path d="M203.265 241.788C204.431 241.714 205.313 241.816 206.428 242.144C208.797 244.951 208.474 247.714 204.743 248.916C199.431 249.127 198.353 243.924 203.265 241.788Z" fill="#26A079"/>
<path d="M160.129 263.201C162.889 263.114 161.384 265.867 163.554 267.137C164.361 267.565 165.906 267.503 166.717 267.212C168.811 266.463 167.688 263.705 170.048 263.031C171.437 263.343 171.254 264.961 170.998 266.018C170.83 266.483 170.608 267.025 170.329 267.428C169.359 268.852 167.835 269.793 166.136 270.022C164.442 270.271 162.723 269.79 161.4 268.698C159.823 267.404 158.531 264.974 160.129 263.201Z" fill="black"/>
<path d="M163.849 222.28C165.435 222.176 167.32 222.287 168.151 223.818C169.457 226.223 168.561 228.186 166.434 229.387C165.645 229.452 164.845 229.403 164.052 229.379C161.705 228.029 161.716 227.023 161.788 224.523C162.439 223.384 162.759 222.992 163.849 222.28Z" fill="#26A079"/>
<path d="M181.029 275.583C184.725 275.189 185.338 277.389 185.163 280.522C184.369 281.379 183.999 281.738 182.95 282.24C181.414 282.303 179.985 281.995 179.138 280.556C178.672 279.763 178.564 278.808 178.841 277.93C179.236 276.646 179.918 276.155 181.029 275.583Z" fill="#26A079"/>
<path d="M148.213 275.57C152.186 275.289 152.525 277.259 152.255 280.623C151.473 281.345 150.949 281.663 150.06 282.243C145.363 282.352 144.36 277.735 148.213 275.57Z" fill="#26A079"/>
<path d="M133.269 245.694C137.418 245.653 138.184 249.969 134.579 251.855C133.915 251.941 133.192 251.946 132.572 251.663C131.796 251.304 131.206 250.632 130.947 249.813C130.644 248.894 130.748 247.886 131.234 247.049C131.765 246.134 132.313 245.929 133.269 245.694Z" fill="#26A079"/>
<path d="M195.474 245.697C195.609 245.689 195.744 245.684 195.879 245.68C198.948 245.611 199.121 247.606 199.042 250.065C198.311 251.091 197.996 251.372 196.854 251.879C196.284 251.884 195.862 251.876 195.303 251.728C194.496 251.515 193.818 250.965 193.441 250.216C192.43 248.243 193.688 246.537 195.474 245.697Z" fill="#26A079"/>
<path d="M198.36 295.057C205.795 300.214 203.858 309.422 199.388 315.843C195.555 321.349 187.384 326.107 181.127 321.786C174.679 317.331 177.403 307.278 181.186 302.014C182.293 300.474 183.663 299.183 184.771 297.732C189.92 299.747 195.138 300.703 198.36 295.057Z" fill="#E60C7F"/>
<path d="M199.206 288.141C199.139 286.599 199.126 285.667 199.721 284.188C201.027 280.943 203.816 279.014 207.309 279.021C211.713 279.029 214.959 282.64 214.7 287.026C214.464 291.955 210.658 295.15 205.822 294.645C203.149 294.365 201.772 293.13 200.184 291.115C199.917 290.782 199.663 290.437 199.423 290.084L199.206 288.141Z" fill="#E60C7F"/>
<path d="M205.006 256.743C204.905 259.035 203.855 258.96 202.019 259.293C203.095 258.077 203.688 257.694 205.006 256.743Z" fill="#E60C7F"/>
<path d="M333.504 293.187C341.538 291.987 348.576 301.53 349.542 308.676C350.392 314.972 348.064 321.305 340.995 322.079C336.725 322.122 335.298 321.51 331.766 319.135C323.313 313.456 320.027 294.672 333.504 293.187Z" fill="#E60C7F"/>
<path d="M261.552 58.8081C275.272 57.5971 277.855 78.7999 269.949 86.5294C268.203 88.2382 267.103 88.659 264.771 89.1779C258.592 90.2186 254.412 85.8236 252.683 80.3293C251.04 75.2647 251.512 69.7456 253.992 65.0377C255.793 61.6319 257.919 59.9075 261.552 58.8081Z" fill="#E60C7F"/>
<path d="M389.468 142.215C406.378 141.581 399.857 166.632 383.38 169.295C379.532 169.371 375.413 168.462 373.794 164.39C370.11 155.118 380.414 142.888 389.468 142.215Z" fill="#E60C7F"/>
<path d="M133.822 149.835C151.196 148.781 160.181 171.082 143.692 173.643C126.537 174.248 117.128 152.393 133.822 149.835Z" fill="#E60C7F"/>
<path d="M261.76 93.8584C267.383 92.9472 272.668 96.8209 273.529 102.486C274.392 108.152 270.499 113.438 264.861 114.26C259.287 115.073 254.103 111.21 253.251 105.608C252.399 100.005 256.197 94.7597 261.76 93.8584Z" fill="#E60C7F"/>
<path d="M261.712 119.113C266.496 118.187 271.127 121.32 272.077 126.128C273.028 130.935 269.945 135.613 265.172 136.601C260.356 137.598 255.654 134.46 254.695 129.609C253.735 124.757 256.883 120.047 261.712 119.113Z" fill="#E60C7F"/>
<path d="M249.789 219.371C250.785 219.277 251.661 219.157 252.491 219.817C253.684 220.763 253.75 222.414 254.097 223.784C254.911 227 257.126 229.142 260.364 229.676C264.404 230.343 268.583 229.041 270.3 224.998C271.106 223.35 270.688 220.777 272.41 219.68C273.76 218.819 275.687 219.243 276.416 220.722C277.277 222.467 276.664 224.749 276.135 226.499C273.642 233.255 266.713 236.973 259.776 235.784C256.399 235.246 252.323 232.967 250.429 230.003C248.545 227.057 246.036 221.83 249.789 219.371Z" fill="black"/>
<path d="M363.13 164.423C367.52 163.9 371.504 167.053 372.03 171.47C372.557 175.886 369.428 179.898 365.039 180.435C360.641 180.973 356.643 177.817 356.115 173.391C355.586 168.964 358.73 164.947 363.13 164.423Z" fill="#E60C7F"/>
<path d="M308.352 263.092C312.687 262.855 316.388 266.206 316.607 270.568C316.827 274.932 313.48 278.642 309.145 278.845C304.832 279.048 301.167 275.704 300.949 271.366C300.731 267.027 304.04 263.328 308.352 263.092Z" fill="#E60C7F"/>
<path d="M319.593 279.167C323.799 278.219 327.974 280.87 328.937 285.097C329.9 289.322 327.288 293.538 323.091 294.529C318.866 295.525 314.638 292.875 313.669 288.617C312.698 284.361 315.356 280.121 319.593 279.167Z" fill="#E60C7F"/>
<path d="M216.949 263.366C221.124 262.293 225.372 264.833 226.43 269.036C227.487 273.24 224.952 277.508 220.772 278.562C216.606 279.614 212.38 277.072 211.326 272.883C210.271 268.693 212.787 264.437 216.949 263.366Z" fill="#E60C7F"/>
<path d="M342.359 174.811C346.496 173.921 350.566 176.569 351.458 180.728C352.351 184.888 349.728 188.989 345.596 189.895C341.451 190.805 337.36 188.157 336.465 183.985C335.57 179.813 338.211 175.702 342.359 174.811Z" fill="#E60C7F"/>
<path d="M160.686 166.203C164.847 165.848 168.517 168.925 168.92 173.107C169.323 177.288 166.308 181.017 162.158 181.473C159.428 181.772 156.749 180.572 155.144 178.33C153.54 176.089 153.257 173.152 154.404 170.642C155.551 168.132 157.95 166.437 160.686 166.203Z" fill="#E60C7F"/>
<path d="M178.79 174.666C182.92 174.459 186.428 177.674 186.606 181.83C186.785 185.986 183.567 189.493 179.435 189.646C175.341 189.797 171.894 186.595 171.717 182.478C171.54 178.36 174.699 174.871 178.79 174.666Z" fill="#E60C7F"/>
<path d="M296.498 168.725C310.115 167.823 321.866 178.234 322.703 191.942C323.54 205.649 313.144 217.43 299.519 218.211C285.98 218.989 274.363 208.605 273.531 194.982C272.699 181.359 282.966 169.622 296.498 168.725Z" fill="#FEFEFE"/>
<path d="M298.428 174.041C309.091 174.187 317.618 183.003 317.475 193.734C317.333 204.464 308.576 213.048 297.914 212.908C287.247 212.769 278.713 203.951 278.855 193.216C278.997 182.48 287.761 173.895 298.428 174.041Z" fill="black"/>
<path d="M289.849 180.684C293.12 180.264 296.117 182.571 296.569 185.858C297.022 189.145 294.762 192.186 291.501 192.677C289.36 192.999 287.212 192.139 285.877 190.425C284.541 188.71 284.223 186.406 285.045 184.39C285.867 182.375 287.702 180.959 289.849 180.684Z" fill="#FEFEFE"/>
<path d="M225.573 168.725C239.19 167.823 250.942 178.234 251.778 191.942C252.615 205.649 242.219 217.43 228.595 218.211C215.055 218.989 203.438 208.605 202.606 194.982C201.775 181.359 212.041 169.622 225.573 168.725Z" fill="#FEFEFE"/>
<path d="M227.504 174.041C238.167 174.187 246.693 183.003 246.551 193.734C246.409 204.464 237.652 213.048 226.99 212.908C216.322 212.769 207.788 203.951 207.93 193.216C208.073 182.48 216.837 173.895 227.504 174.041Z" fill="black"/>
<path d="M218.925 180.684C222.195 180.264 225.192 182.571 225.645 185.858C226.098 189.145 223.837 192.186 220.577 192.677C218.436 192.999 216.288 192.139 214.952 190.425C213.617 188.71 213.299 186.406 214.121 184.39C214.943 182.375 216.777 180.959 218.925 180.684Z" fill="#FEFEFE"/>
<path d="M150.81 240.721C156.837 240.322 162.038 244.929 162.408 250.996C162.778 257.063 158.177 262.276 152.147 262.622C146.155 262.966 141.014 258.371 140.646 252.342C140.278 246.313 144.821 241.118 150.81 240.721Z" fill="#FEFEFE"/>
<path d="M151.664 243.074C156.383 243.138 160.157 247.04 160.094 251.789C160.031 256.538 156.156 260.337 151.437 260.275C146.716 260.213 142.939 256.311 143.002 251.56C143.065 246.809 146.943 243.009 151.664 243.074Z" fill="black"/>
<path d="M147.868 246.014C149.315 245.828 150.642 246.849 150.842 248.303C151.042 249.758 150.042 251.104 148.599 251.321C147.651 251.464 146.701 251.083 146.11 250.325C145.519 249.566 145.378 248.546 145.742 247.654C146.106 246.762 146.918 246.136 147.868 246.014Z" fill="#FEFEFE"/>
<path d="M178.115 240.721C184.141 240.322 189.342 244.929 189.712 250.996C190.082 257.063 185.481 262.276 179.452 262.622C173.459 262.966 168.318 258.371 167.95 252.342C167.582 246.313 172.126 241.118 178.115 240.721Z" fill="#FEFEFE"/>
<path d="M178.969 243.074C183.688 243.138 187.462 247.04 187.399 251.789C187.336 256.538 183.46 260.337 178.741 260.275C174.02 260.213 170.244 256.311 170.306 251.56C170.369 246.809 174.248 243.009 178.969 243.074Z" fill="black"/>
<path d="M175.172 246.014C176.619 245.828 177.946 246.849 178.146 248.303C178.347 249.758 177.346 251.104 175.903 251.321C174.956 251.464 174.005 251.083 173.414 250.325C172.823 249.566 172.682 248.546 173.046 247.654C173.41 246.762 174.222 246.136 175.172 246.014Z" fill="#FEFEFE"/>
</svg>
